<svg xmlns="http://www.w3.org/2000/svg" width="100px" xmlns:xlink="http://www.w3.org/1999/xlink" version="1.1" x="0px" y="0px" viewBox="0 0 100 125" enable-background="new 0 0 100 100" xml:space="preserve"><path stroke="#010101" stroke-width="0.9564" stroke-miterlimit="10" d="M51.934,5.787c6.366-1.391,5.76,11.455,5.579,23.432v16.737  c-0.118,0.947,0.573,1.717,1.275,1.753c0.743,0.039,1.547-0.742,1.435-1.753c0.266-2.179,0.531-4.357,0.797-6.536V23.641  c2.132-4.441,4.32-3.608,6.536-0.159l0.638,7.492v14.984c-0.999,5.929-4.773,7.933-10.84,6.695l-0.797,38.257  c0.611,4.215-11.659,4.86-12.115,0V48.348c-7.106,1.099-11.073-2.885-10.521-14.187l1.594-19.447  c1.922-2.701,3.89-2.725,5.898-0.319l1.435,16.897c0.106,3.613,0.213,7.226,0.319,10.84c-0.005,1.161,0.74,1.932,1.275,1.913  c0.546-0.02,1.253-0.878,1.116-2.072c-0.255-5.835-0.257-12.242,0.159-19.129c0.308-5.095,0.811-9.887,1.435-14.346  c0.113-0.412,0.369-1.169,1.056-1.783C49.116,5.903,50.426,5.696,51.934,5.787z" fill="#000000"/></svg>